<svg width="259" height="63" viewBox="0 0 259 63" fill="none" xmlns="http://www.w3.org/2000/svg">
<path d="M258.879 54.8888C258.879 58.6383 255.838 61.68 252.085 61.68C248.332 61.68 245.293 58.6383 245.293 54.8888C245.293 51.1393 248.335 48.0977 252.085 48.0977C255.834 48.0977 258.879 51.1393 258.879 54.8888Z" fill="#FE5200"/>
<path d="M244.81 61.3211H227.505L220.438 52.8071C222.672 50.0934 225.638 46.489 228.986 42.4219L241.944 57.8997L244.813 61.3246L244.81 61.3211Z" fill="white"/>
<path d="M213.06 53.0862L206.303 61.3205H189.292L204.732 42.6802L213.06 53.0862Z" fill="white"/>
<path d="M259 0C252.195 8.2585 236.593 27.2234 225.5 40.7021C225.362 40.8678 225.227 41.0336 225.089 41.1993C222.852 43.9164 220.808 46.3988 219.071 48.5118L218.346 49.3922C218.222 49.5475 218.098 49.696 217.977 49.8444C217.497 50.4279 217.045 50.9769 216.627 51.4844C216.257 51.0218 215.884 50.5557 215.515 50.0965C215.125 49.6097 214.735 49.1229 214.348 48.6361C206.366 38.6616 198.39 28.6907 190.415 18.7197H207.357L217.131 30.6828L242.283 0.00345592H258.996L259 0Z" fill="url(#paint0_linear_773_3596)"/>
<path d="M55.517 35.055C54.0738 32.9179 51.7606 31.2399 48.5774 30.0177C45.3907 28.8024 41.1371 27.9462 35.8167 27.4456L24.6961 26.327C21.5094 26.03 19.3101 25.4845 18.0948 24.6835C16.8726 23.8895 16.265 22.8468 16.265 21.5521C16.265 19.7602 17.2835 18.4034 19.3239 17.485C21.3644 16.5631 24.1264 16.104 27.6066 16.104C30.1925 16.104 32.4056 16.3629 34.2493 16.8877C36.0929 17.4125 37.543 18.1582 38.6168 19.1284C39.6836 20.0986 40.3189 21.2517 40.5191 22.5982H56.1868C55.9865 18.9178 54.6573 15.6827 52.1956 12.9C49.7305 10.1103 46.4126 7.96285 42.235 6.44372C38.054 4.9246 33.2791 4.16504 27.907 4.16504C22.5348 4.16504 17.646 4.84865 13.5443 6.21931C9.43927 7.58652 6.25602 9.61316 3.9946 12.2992C1.72973 14.9888 0.59729 18.2687 0.59729 22.1528C0.59729 26.9312 2.34083 30.722 5.821 33.5324C9.30117 36.3428 14.9012 38.0932 22.6142 38.7906L33.0616 39.7643C36.5936 40.113 38.9793 40.6861 40.2257 41.4802C41.4686 42.2743 42.09 43.3964 42.09 44.8395C42.09 46.7281 40.9956 48.1609 38.8067 49.1276C36.6177 50.0977 33.6313 50.5811 29.8507 50.5811C27.1129 50.5811 24.741 50.2738 22.7247 49.6524C20.7084 49.0309 19.1064 48.1471 17.9084 47.0008C16.7138 45.858 15.9922 44.515 15.7471 42.9717H0C0.151912 46.8489 1.46734 50.2738 3.95662 53.2327C6.44246 56.195 9.8881 58.4805 14.2901 60.0998C18.6921 61.7156 23.7812 62.5269 29.5504 62.5269C35.3196 62.5269 40.0945 61.719 44.3238 60.0998C48.5532 58.484 51.8331 56.2191 54.1739 53.3121C56.5113 50.3981 57.6817 46.9801 57.6817 43.0476C57.6817 39.8644 56.9602 37.2059 55.5205 35.0619L55.517 35.055Z" fill="#FE5200"/>
<path d="M99.6166 5.35449H79.2431L53.7979 61.3238H70.2872L74.9447 50.576H103.925L108.569 61.3238H125.058L99.6132 5.35449H99.6166ZM80.3514 38.1157L89.4661 17.0966L98.5463 38.1157H80.3514Z" fill="#FE5200"/>
<path d="M187.418 18.0444H174.892V61.3256H187.418V18.0444Z" fill="white"/>
<path d="M181.186 14.5003C184.937 14.5003 187.977 11.4598 187.977 7.70913C187.977 3.95847 184.937 0.917969 181.186 0.917969C177.436 0.917969 174.395 3.95847 174.395 7.70913C174.395 11.4598 177.436 14.5003 181.186 14.5003Z" fill="white"/>
<path d="M168.339 25.0903C166.955 22.8427 164.945 21.1026 162.311 19.87C159.677 18.6409 156.552 18.0264 152.941 18.0264H128.656V61.2868H140.595V47.846H152.941C156.552 47.846 159.677 47.2315 162.311 45.9989C164.945 44.7698 166.958 43.0297 168.339 40.7787C169.724 38.5311 170.414 35.9244 170.414 32.9621C170.414 29.9998 169.724 27.3379 168.339 25.0903ZM156.69 36.86C155.613 37.8026 154.111 38.2756 152.188 38.2756H140.595V27.6037H152.188C154.111 27.6037 155.613 28.0733 156.69 29.0158C157.764 29.9584 158.303 31.2738 158.303 32.9655C158.303 34.6573 157.764 35.9175 156.69 36.86Z" fill="white"/>
<defs>
<linearGradient id="paint0_linear_773_3596" x1="206.874" y1="52.1258" x2="256.556" y2="-4.49814e-06" gradientUnits="userSpaceOnUse">
<stop offset="0.0566673" stop-color="#FE5200"/>
<stop offset="1" stop-color="#7A20AC"/>
</linearGradient>
</defs>
</svg>
